<svg xmlns="http://www.w3.org/2000/svg" viewBox="0 0 233.11 28.77"><defs><style>.cls-1{fill:#3880ff;}</style></defs><g id="Layer_2" data-name="Layer 2"><g id="Layer_1-2" data-name="Layer 1"><path class="cls-1" d="M15.1,1.15a3.9,3.9,0,0,1,5.4.34c1.42,1.35,1.56,3,.36,5-1.82,3-3.7,5.95-5.5,9a3.67,3.67,0,0,0-.51,1.77c-.06,2.19,0,4.39,0,6.58a26.64,26.64,0,0,1-.43,3.05,4.65,4.65,0,0,1-3.66,1.7A3.65,3.65,0,0,1,7,24.84c0-2.47,0-4.95,0-7.42a4.25,4.25,0,0,0-.54-2C4.52,12.3,2.58,9.23.67,6.14A3.31,3.31,0,0,1,.56,2.31,4.27,4.27,0,0,1,4.37.23,3.4,3.4,0,0,1,7.28,2.06c1,1.63,2,3.29,2.93,4.94.17.3.37.59.62,1Z"/><path class="cls-1" d="M39.7.33C45.24,2,49,5.55,50.29,11.25a14.3,14.3,0,0,1-10.17,17c-.26.08-.52.18-.78.27a16.8,16.8,0,0,1-7.81-.48,14.4,14.4,0,0,1,4.6-28C37.32,0,38.51.21,39.7.33Zm-.85,8.21a6.44,6.44,0,1,0-.21,11.79,6.24,6.24,0,0,0,4.09-5.76A6.2,6.2,0,0,0,38.85,8.54Z"/><path class="cls-1" d="M214.49,28.17a4.49,4.49,0,0,1,.42-7.35c.7-.07,1.41-.19,2.12-.2,2.48,0,4.95,0,7.42,0,.9,0,1.76-.17,1.78-1.3S225.41,18,224.49,18c-1.31,0-2.63,0-4,0a9.31,9.31,0,0,1-5.62-1.67c-3.15-3.52-3.44-8.84-.74-13.41A8.94,8.94,0,0,1,221.1.22c2.19,0,4.39,0,6.59,0,2.41,0,3.57,1.26,3.58,3.79,0,2.7-1.16,4.07-3.56,4.11-2.2,0-4.4,0-6.59,0-1,0-1.76.3-1.86,1.41-.07.88.64,1.43,1.81,1.45,1.44,0,2.88,0,4.32,0,4.48.07,7.14,2.34,7.63,6.78a16.34,16.34,0,0,1-.26,5c-.72,3.46-3.28,5.52-7.06,5.69-3.23.14-6.47.06-9.7,0A7.29,7.29,0,0,1,214.49,28.17Z"/><path class="cls-1" d="M190.67,28.55c-2.49-.81-3.2-1.76-3.2-4.34,0-6.62,0-13.23,0-19.84a3.82,3.82,0,0,1,2.57-4,4,4,0,0,1,4.84,2c2,3.34,4.26,6.55,6.58,10.07.06-.59.11-.9.11-1.22,0-2.44-.07-4.88.05-7.31A3.83,3.83,0,0,1,207.08.5a3.29,3.29,0,0,1,2.3,3.18q0,10.67,0,21.32a3.34,3.34,0,0,1-2.46,3.31,3.94,3.94,0,0,1-4.55-1.18c-1-1.33-1.9-2.76-2.84-4.15-1.34-2-2.68-4-4.24-5.95V23.8C195.28,27.3,194.18,28.44,190.67,28.55Z"/><path class="cls-1" d="M131.49,17.07c0,2.54,0,5.09,0,7.64a3.8,3.8,0,0,1-4.79,3.77,3.53,3.53,0,0,1-3-3.29c-.08-1.16,0-2.32,0-3.48,0-5.79,0-11.58,0-17.37,0-2.8,1.59-4.25,4.38-4.11a3.14,3.14,0,0,1,2.63,1.61q3.08,4.73,6.17,9.41c.21.32.44.64.8,1.17.05-.56.1-.89.1-1.22,0-2.39-.06-4.79,0-7.19A3.84,3.84,0,0,1,143.2.47a3.31,3.31,0,0,1,2.39,3.25q0,10.67,0,21.33A3.34,3.34,0,0,1,143,28.36,3.93,3.93,0,0,1,138.46,27c-1.19-1.65-2.28-3.37-3.42-5.06L131.73,17Z"/><path class="cls-1" d="M90.76,18.52H84.49v2.69c0,1.24,0,2.48,0,3.72a3.9,3.9,0,0,1-7.77,0c-.08-1.88,0-3.76,0-5.64,0-5,0-10.07,0-15.11A3.87,3.87,0,0,1,82,.44a3.38,3.38,0,0,1,2.45,3.2c0,1.12,0,2.24,0,3.36v3.44h6.3c0-2.21-.11-4.41,0-6.59A3.84,3.84,0,0,1,96.25.49a3.27,3.27,0,0,1,2.32,3.17c0,7.15,0,14.31,0,21.46a3.48,3.48,0,0,1-3.5,3.4c-2.26.12-3.89-1-4.19-3a15.26,15.26,0,0,1-.11-2C90.75,21.83,90.76,20.2,90.76,18.52Z"/><path class="cls-1" d="M61.62,28.52c-1.56,0-3.12,0-4.68,0-2.24-.07-3.43-1.48-3.39-3.9s1.27-4,3.49-4c2.4,0,4.8,0,7.19,0,.32,0,.64,0,1,0,.91,0,1.78-.19,1.79-1.3S66.14,18,65.22,18c-1.44,0-2.88,0-4.32,0a8,8,0,0,1-1.54-.14c-3.57-.68-5.57-2.59-6-6.18a18.86,18.86,0,0,1,.22-5.71C54.27,2.47,57,.41,60.79.26c2.68-.1,5.36-.06,8,0A3,3,0,0,1,72,3.09c.47,3.45-.91,5.05-4.37,5.06H61.73c-1,0-1.7.41-1.7,1.43S60.77,11,61.74,11c1.48,0,2.95,0,4.43,0,4.39.07,7,2.26,7.57,6.57a16.25,16.25,0,0,1-.3,5.34c-.76,3.47-3.36,5.4-7.15,5.57-1.55.07-3.11,0-4.67,0Z"/><path class="cls-1" d="M176.2,23c-2.57,0-5.08,0-7.6,0a1.31,1.31,0,0,0-.92.64c-.4.77-.65,1.62-1,2.43a3.79,3.79,0,0,1-5.24,2.08,3.56,3.56,0,0,1-2-5.11Q164,13,168.62,3a4.07,4.07,0,0,1,4-2.72,3.93,3.93,0,0,1,3.63,2.82q4.15,10,8.33,20c1,2.31.17,4.31-2,5.19a3.79,3.79,0,0,1-5.28-2.39C176.89,24.91,176.55,24,176.2,23Zm-5.79-6.33h3.66c-.57-1.63-1.1-3.16-1.71-4.89Z"/><path class="cls-1" d="M109.61,14.42c0,3.43,0,6.87,0,10.3a3.44,3.44,0,0,1-2.23,3.49,3.78,3.78,0,0,1-4.44-.75,4.58,4.58,0,0,1-1.13-2.76c-.1-6.87-.08-13.74,0-20.61A3.67,3.67,0,0,1,105.84.22a3.61,3.61,0,0,1,3.77,3.89C109.64,7.55,109.62,11,109.61,14.42Z"/><path class="cls-1" d="M120.65,14.44c0,3.39-.06,6.79,0,10.18s-3.48,4.68-5.86,3.48a3.55,3.55,0,0,1-2-3.42c0-6.87,0-13.74,0-20.61A3.65,3.65,0,0,1,116.89.22a3.61,3.61,0,0,1,3.75,3.91C120.67,7.57,120.65,11,120.65,14.44Z"/><path class="cls-1" d="M156.62,14.5c0,3.39,0,6.79,0,10.18a3.46,3.46,0,0,1-2.09,3.47,4.16,4.16,0,0,1-4.41-.47,3.56,3.56,0,0,1-1.35-3.06c0-6.83,0-13.66,0-20.49a3.67,3.67,0,0,1,4-3.91c2.34,0,3.79,1.5,3.81,4,0,3.44,0,6.87,0,10.31Z"/></g></g></svg>